<svg width="28" height="28" viewBox="0 0 28 28" fill="none" xmlns="http://www.w3.org/2000/svg">
<path d="M14 26.6116C13.195 26.6116 12.4366 26.2033 11.9 25.4916L10.15 23.1583C10.115 23.1116 9.97498 23.0533 9.91665 23.0416H9.33331C4.46831 23.0416 1.45831 21.7233 1.45831 15.1666V9.33331C1.45831 4.17665 4.17665 1.45831 9.33331 1.45831H18.6666C23.8233 1.45831 26.5416 4.17665 26.5416 9.33331V15.1666C26.5416 20.3233 23.8233 23.0416 18.6666 23.0416H18.0833C17.99 23.0416 17.9083 23.0883 17.85 23.1583L16.1 25.4916C15.5633 26.2033 14.805 26.6116 14 26.6116ZM9.33331 3.20831C5.15665 3.20831 3.20831 5.15665 3.20831 9.33331V15.1666C3.20831 20.44 5.01665 21.2916 9.33331 21.2916H9.91665C10.5116 21.2916 11.1883 21.63 11.55 22.1083L13.3 24.4416C13.7083 24.9783 14.2916 24.9783 14.7 24.4416L16.45 22.1083C16.835 21.595 17.4416 21.2916 18.0833 21.2916H18.6666C22.8433 21.2916 24.7916 19.3433 24.7916 15.1666V9.33331C24.7916 5.15665 22.8433 3.20831 18.6666 3.20831H9.33331Z" fill="#292D32"/>
<path d="M19.8334 10.2083H8.16669C7.68835 10.2083 7.29169 9.81165 7.29169 9.33331C7.29169 8.85498 7.68835 8.45831 8.16669 8.45831H19.8334C20.3117 8.45831 20.7084 8.85498 20.7084 9.33331C20.7084 9.81165 20.3117 10.2083 19.8334 10.2083Z" fill="#292D32"/>
<path d="M15.1667 16.0417H8.16669C7.68835 16.0417 7.29169 15.645 7.29169 15.1667C7.29169 14.6884 7.68835 14.2917 8.16669 14.2917H15.1667C15.645 14.2917 16.0417 14.6884 16.0417 15.1667C16.0417 15.645 15.645 16.0417 15.1667 16.0417Z" fill="#292D32"/>
</svg>
