<svg width="36" height="37" viewBox="0 0 36 37" fill="none" xmlns="http://www.w3.org/2000/svg">
<path d="M3.76101 36.0126C2.80503 36.0126 1.84906 35.6604 1.09434 34.9057C-0.36478 33.4465 -0.36478 31.0314 1.09434 29.5723L29.5723 1.09434C31.0314 -0.36478 33.4465 -0.36478 34.9057 1.09434C36.3648 2.55346 36.3648 4.96855 34.9057 6.42767L6.42767 34.9057C5.72327 35.6604 4.71698 36.0126 3.76101 36.0126Z" fill="#292D32"/>
<path d="M32.239 36.0126C31.283 36.0126 30.327 35.6604 29.5723 34.9057L1.09434 6.42767C-0.36478 4.96855 -0.36478 2.55346 1.09434 1.09434C2.55346 -0.36478 4.96855 -0.36478 6.42767 1.09434L34.9057 29.5723C36.3648 31.0314 36.3648 33.4465 34.9057 34.9057C34.1509 35.6604 33.195 36.0126 32.239 36.0126Z" fill="#292D32"/>
</svg>
