<svg width="25" height="24" viewBox="0 0 25 24" fill="none" xmlns="http://www.w3.org/2000/svg">
<path d="M12.4999 14.1699C10.3699 14.1699 8.62988 12.4399 8.62988 10.2999C8.62988 8.15994 10.3699 6.43994 12.4999 6.43994C14.6299 6.43994 16.3699 8.16994 16.3699 10.3099C16.3699 12.4499 14.6299 14.1699 12.4999 14.1699ZM12.4999 7.93994C11.1999 7.93994 10.1299 8.99994 10.1299 10.3099C10.1299 11.6199 11.1899 12.6799 12.4999 12.6799C13.8099 12.6799 14.8699 11.6199 14.8699 10.3099C14.8699 8.99994 13.7999 7.93994 12.4999 7.93994Z" fill="#292D32"/>
<path d="M12.4999 22.76C11.0199 22.76 9.52993 22.2 8.36993 21.09C5.41993 18.25 2.15993 13.72 3.38993 8.33C4.49993 3.44 8.76993 1.25 12.4999 1.25C12.4999 1.25 12.4999 1.25 12.5099 1.25C16.2399 1.25 20.5099 3.44 21.6199 8.34C22.8399 13.73 19.5799 18.25 16.6299 21.09C15.4699 22.2 13.9799 22.76 12.4999 22.76ZM12.4999 2.75C9.58993 2.75 5.84993 4.3 4.85993 8.66C3.77993 13.37 6.73993 17.43 9.41993 20C11.1499 21.67 13.8599 21.67 15.5899 20C18.2599 17.43 21.2199 13.37 20.1599 8.66C19.1599 4.3 15.4099 2.75 12.4999 2.75Z" fill="#292D32"/>
</svg>
