<svg width="24" height="24" viewBox="0 0 24 24" fill="none" xmlns="http://www.w3.org/2000/svg">
<path d="M13.2312 17H11.0455C9.36974 17 8.01457 15.646 8.01457 13.9676C8.01457 13.3893 8.51001 12.9097 9.10745 12.9097C9.70489 12.9097 10.2003 13.3893 10.2003 13.9676C10.2003 14.4753 10.5792 14.8843 11.0455 14.8843H13.2312C13.5664 14.8843 13.8287 14.5882 13.8287 14.2214C13.8287 13.7278 13.7413 13.6996 13.4061 13.5867L9.89432 12.402C8.62658 11.9788 8 11.1185 8 9.77856C8 8.25529 9.25317 7 10.7832 7H12.969C14.6447 7 15.9999 8.35402 15.9999 10.0324C15.9999 10.6107 15.5044 11.0903 14.907 11.0903C14.3096 11.0903 13.8141 10.6107 13.8141 10.0324C13.8141 9.52468 13.4353 9.11566 12.969 9.11566H10.7832C10.448 9.11566 10.1858 9.41185 10.1858 9.77856C10.1858 10.2722 10.2732 10.3004 10.6083 10.4133L14.1201 11.598C15.3879 12.0353 15.9999 12.8956 15.9999 14.2214C16.0144 15.7588 14.7613 17 13.2312 17Z" fill="#292D32"/>
<path d="M12 18C11.4533 18 11 17.5446 11 16.9955V16.0045C11 15.4554 11.4533 15 12 15C12.5467 15 13 15.4554 13 16.0045V16.9955C13 17.558 12.5467 18 12 18Z" fill="#292D32"/>
<path d="M12 8C11.4533 8 11 7.70175 11 7.34211V6.65789C11 6.29825 11.4533 6 12 6C12.5467 6 13 6.29825 13 6.65789V7.34211C13 7.70175 12.5467 8 12 8Z" fill="#292D32"/>
<path d="M12 24C5.38215 24 0 18.6178 0 12C0 5.38215 5.38215 0 12 0C18.6178 0 24 5.38215 24 12C24 18.6178 18.6041 24 12 24ZM12 2.07323C6.52174 2.07323 2.0595 6.53547 2.0595 12.0137C2.0595 17.492 6.52174 21.9405 12 21.9405C17.4783 21.9405 21.9405 17.4783 21.9405 12C21.9405 6.52174 17.4783 2.07323 12 2.07323Z" fill="#292D32"/>
</svg>
